{"title":"BBC Horizon S48E04 The Core. 2011/2012 HD 720p w/subs [aularon]","uid":6643398,"size":1058129310,"categoryP":"video","categoryS":"hd___tv_shows","magnet":"?xt=urn:btih:6406f6c697e621cb422a32bde8868064f506000a&amp;dn=BBC+Horizon+S48E04+The+Core.+2011%2F2012+HD+720p+w%2Fsubs+%5Baularon%5D&amp;tr=udp%3A%2F%2Ftracker.openbittorrent.com%3A80&amp;tr=udp%3A%2F%2Fopen.demonii.com%3A1337&amp;tr=udp%3A%2F%2Ftracker.coppersurfer.tk%3A6969&amp;tr=udp%3A%2F%2Fexodus.desync.com%3A6969","seeders":0,"leechers":1,"uploader":"aularon","files":-1,"time":1314839493,"description":"BBC Horizon S48E04 The Core. 2011/2012 HD 720p x264 aac mp4 w/subtitles [aularon]\n\n\n- - -\nSynopsis\n- - -\nFor centuries we have dreamt of reaching the centre of the Earth. Now scientists are uncovering a bizarre and alien world that lies 4,000 miles beneath our feet, unlike anything we know on the surface. It is a planet buried within the planet we know, where storms rage within a sea of white-hot metal and a giant forest of crystals make up a metal core the size of the Moon.\n\nHorizon follows scientists who are conducting experiments to recreate this core within their own laboratories, with surprising results.\n\n\n- - -\nURL\n- - -     &lt;a href=&quot;\nhttp://www.bbc.co.uk/programmes/b0148vph&quot; rel=&quot;nofollow&quot; target=&quot;_NEW&quot;&gt;\nhttp://www.bbc.co.uk/programmes/b0148vph&lt;/a&gt;\n\n\n- - -\nTechnical Details\n- - -\nGeneral\nComplete name                    : BBC.Horizon.2011.2012.S48E04.The.Core/Horizon_-_2011-2012_4._The_Core_b0148vph_default.mp4\nFormat                           : MPEG-4\nFormat profile                   : Base Media\nCodec ID                         : isom\nFile size                        : 1 009 MiB\nDuration                         : 59mn 7s\nOverall bit rate                 : 2 386 Kbps\nMovie name                       : Horizon: 2011-2012: The Core\nAlbum                            : Horizon\nTrack name/Position              : 4\nTrack name/Total                 : 0\nPerformer                        : Horizon\nGenre                            : Factual,Science &amp; Nature\nRecorded date                    : 2011-08-31T21:00:00+01:00\nTagged date                      : UTC 2011-08-31 22:57:41\nWriting application              : Lavf53.10.0\nCover                            : Yes\nComment                          : Recorded using get_iplayer, by Aularon.\nrtng                             : 2\nstik                             : 1\ndesc                             : For centuries people have dreamt of reaching the centre of the Earth. Now scientists are uncovering a bizarre and alien world that lies 4,000 miles beneath our feet.\ntvnn                             : BBC HD\ntvsh                             : Horizon\ntven                             : b0148vph\ncatg                             : Factual,Science &amp; Nature\ntves                             : 4\n\nVideo\nID                               : 1\nFormat                           : AVC\nFormat/Info                      : Advanced Video Codec\nFormat profile                   : &lt;a class=&quot;__cf_email__&quot; href=&quot;/cdn-cgi/l/email-protection&quot; data-cfemail=&quot;541c3d333c1418607a65&quot;&gt;[email&amp;#160;protected]&lt;/a&gt;&lt;script cf-hash='f9e31' type=&quot;text/javascript&quot;&gt;\n/* &lt;![CDATA[ */!function(){try{var t=&quot;currentScript&quot;in document?document.currentScript:function(){for(var t=document.getElementsByTagName(&quot;script&quot;),e=t.length;e--;)if(t[e].getAttribute(&quot;cf-hash&quot;))return t[e]}();if(t&amp;&amp;t.previousSibling){var e,r,n,i,c=t.previousSibling,a=c.getAttribute(&quot;data-cfemail&quot;);if(a){for(e=&quot;&quot;,r=parseInt(a.substr(0,2),16),n=2;a.length-n;n+=2)i=parseInt(a.substr(n,2),16)^r,e+=String.fromCharCode(i);e=document.createTextNode(e),c.parentNode.replaceChild(e,c)}}}catch(u){}}();/* ]]&gt; */&lt;/script&gt;\nFormat settings, CABAC           : Yes\nFormat settings, ReFrames        : 6 frames\nFormat settings, GOP             : M=1, N=55\nCodec ID                         : avc1\nCodec ID/Info                    : Advanced Video Coding\nDuration                         : 59mn 7s\nBit rate mode                    : Variable\nBit rate                         : 2 286 Kbps\nMaximum bit rate                 : 3 500 Kbps\nWidth                            : 1 280 pixels\nHeight                           : 720 pixels\nDisplay aspect ratio             : 16:9\nFrame rate mode                  : Constant\nFrame rate                       : 25.000 fps\nStandard                         : PAL\nColor space                      : YUV\nChroma subsampling               : 4:2:0\nBit depth                        : 8 bits\nScan type                        : Progressive\nBits/(Pixel*Frame)               : 0.099\nStream size                      : 966 MiB (96%)\n\nAudio\nID                               : 2\nFormat                           : AAC\nFormat/Info                      : Advanced Audio Codec\nFormat profile                   : HE-AAC / LC\nCodec ID                         : 40\nDuration                         : 59mn 7s\nBit rate mode                    : Constant\nBit rate                         : 96.0 Kbps\nChannel(s)                       : 2 channels\nChannel positions                : Front: L R\nSampling rate                    : 48.0 KHz / 24.0 KHz\nCompression mode                 : Lossy\nStream size                      : 40.1 MiB (4%)\n\n                  ______                                     \n                 (____  \\                                    \n                  ____)  )_____  ____ _____ _   _  ___ _____ \n                 |  __  (| ___ |/ ___|____ | | | |/___) ___ |\n            _ _ _| |__)  ) ____( (___/ ___ | |_| |___ | ____|\n           (_|_|_)______/|_____)\\____)_____|____/(___/|_____)\n                                                              \n                   ______ _                 _             \n                  / _____) |               (_)            \n                 ( (____ | |__  _____  ____ _ ____   ____ \n                  \\____ \\|  _ \\(____ |/ ___) |  _ \\ / _  |\n                  _____) ) | | / ___ | |   | | | | ( (_| |\n                 (______/|_| |_\\_____|_|   |_|_| |_|\\___ |\n                                                   (_____|\n                                  _      \n                                 (_)     \n                                  _  ___ \n                                 | |/___)\n                                 | |___ |\n                                 |_(___/ \n\n                    _______             _               \n                   (_______)           (_)              \n                    _       _____  ____ _ ____   ____   \n                   | |     (____ |/ ___) |  _ \\ / _  |  \n                   | |_____/ ___ | |   | | | | ( (_| |_ \n                    \\______)_____|_|   |_|_| |_|\\___ (_)\n                                               (_____|  \n\n                                    ;)\n\n","torrent":{"xt":"urn:btih:6406f6c697e621cb422a32bde8868064f506000a","amp;dn":"BBC+Horizon+S48E04+The+Core.+2011%2F2012+HD+720p+w%2Fsubs+%5Baularon%5D","amp;tr":["udp%3A%2F%2Ftracker.openbittorrent.com%3A80","udp%3A%2F%2Fopen.demonii.com%3A1337","udp%3A%2F%2Ftracker.coppersurfer.tk%3A6969","udp%3A%2F%2Fexodus.desync.com%3A6969"],"infoHash":"6406f6c697e621cb422a32bde8868064f506000a","infoHashBuffer":{"type":"Buffer","data":[100,6,246,198,151,230,33,203,66,42,50,189,232,134,128,100,245,6,0,10]},"announce":[],"urlList":[]}}